<svg width="150" height="150" viewBox="0 0 150 150" fill="none" xmlns="http://www.w3.org/2000/svg">
  <path
    d="M75 0C33.5827 0 0 33.5741 0 75C0 116.426 33.5827 150 75 150C116.417 150 150 116.426 150 75C150 33.5741 116.417 0 75 0Z"
    fill="white" />
  <path d="M55.7253 106.79H52.354V100.767H49.832V114.659H52.354V109.026H55.7253V114.659H58.2212V100.767H55.7253V106.79Z"
    fill="white" />
  <path d="M55.7253 106.79H52.354V100.767H49.832V114.659H52.354V109.026H55.7253V114.659H58.2212V100.767H55.7253V106.79Z"
    fill="black" />
  <path
    d="M85.0683 109.016C85.8916 108.513 86.4116 107.595 86.4982 106.494V103.781C86.3942 101.892 85.1376 100.757 83.1183 100.757H78.707V114.649H81.177V109.527H82.659L84.3489 114.667H86.9662L84.9989 109.059L85.0769 109.016H85.0683ZM82.893 107.647H81.1857V102.802H83.0056C83.6296 102.802 83.9849 103.123 84.0976 103.781V106.546C83.9936 107.283 83.5949 107.647 82.9016 107.647H82.893Z"
    fill="white" />
  <path
    d="M85.0683 109.016C85.8916 108.513 86.4116 107.595 86.4982 106.494V103.781C86.3942 101.892 85.1376 100.757 83.1183 100.757H78.707V114.649H81.177V109.527H82.659L84.3489 114.667H86.9662L84.9989 109.059L85.0769 109.016H85.0683ZM82.893 107.647H81.1857V102.802H83.0056C83.6296 102.802 83.9849 103.123 84.0976 103.781V106.546C83.9936 107.283 83.5949 107.647 82.9016 107.647H82.893Z"
    fill="black" />
  <path
    d="M70.0322 111.305C70.0322 112.206 69.4082 112.813 68.4809 112.813C67.5535 112.813 66.9469 112.189 66.9469 111.305V100.767H64.4336V111.305C64.4336 113.472 66.0976 114.98 68.4809 114.98C70.8641 114.98 72.4414 113.506 72.4414 111.305V100.767H70.0322V111.305Z"
    fill="white" />
  <path
    d="M70.0322 111.305C70.0322 112.206 69.4082 112.813 68.4809 112.813C67.5535 112.813 66.9469 112.189 66.9469 111.305V100.767H64.4336V111.305C64.4336 113.472 66.0976 114.98 68.4809 114.98C70.8641 114.98 72.4414 113.506 72.4414 111.305V100.767H70.0322V111.305Z"
    fill="black" />
  <path
    d="M96.5363 100.454C94.023 100.454 92.4023 101.971 92.4023 104.328V111.105C92.4023 113.454 94.023 114.979 96.5363 114.979C99.0496 114.979 100.41 113.601 100.41 111.296V109.649H98.1656V111.279C98.1656 112.145 97.4809 112.795 96.5796 112.795C95.6783 112.795 94.9243 112.137 94.9243 111.322V104.12C94.9243 103.305 95.6696 102.647 96.5796 102.647C97.4896 102.647 98.1656 103.297 98.1656 104.163V105.793H100.41V104.146C100.41 101.841 98.9629 100.463 96.5363 100.463V100.454Z"
    fill="white" />
  <path
    d="M96.5363 100.454C94.023 100.454 92.4023 101.971 92.4023 104.328V111.105C92.4023 113.454 94.023 114.979 96.5363 114.979C99.0496 114.979 100.41 113.601 100.41 111.296V109.649H98.1656V111.279C98.1656 112.145 97.4809 112.795 96.5796 112.795C95.6783 112.795 94.9243 112.137 94.9243 111.322V104.12C94.9243 103.305 95.6696 102.647 96.5796 102.647C97.4896 102.647 98.1656 103.297 98.1656 104.163V105.793H100.41V104.146C100.41 101.841 98.9629 100.463 96.5363 100.463V100.454Z"
    fill="black" />
  <path
    d="M112.108 106.79H108.745V100.767H106.215V114.659H108.745V109.026H112.108V114.659H114.613V100.767H112.108V106.79Z"
    fill="white" />
  <path
    d="M112.108 106.79H108.745V100.767H106.215V114.659H108.745V109.026H112.108V114.659H114.613V100.767H112.108V106.79Z"
    fill="black" />
  <path
    d="M40.1496 100.454C37.6363 100.454 36.0156 101.971 36.0156 104.328V111.105C36.0156 113.454 37.6363 114.979 40.1496 114.979C42.6628 114.979 44.0235 113.601 44.0235 111.296V109.649H41.7789V111.279C41.7789 112.145 41.0942 112.795 40.1929 112.795C39.2916 112.795 38.5376 112.137 38.5376 111.322V104.12C38.5376 103.305 39.2829 102.647 40.1929 102.647C41.1029 102.647 41.7789 103.297 41.7789 104.163V105.793H44.0235V104.146C44.0235 101.841 42.5762 100.463 40.1496 100.463V100.454Z"
    fill="white" />
  <path
    d="M40.1496 100.454C37.6363 100.454 36.0156 101.971 36.0156 104.328V111.105C36.0156 113.454 37.6363 114.979 40.1496 114.979C42.6628 114.979 44.0235 113.601 44.0235 111.296V109.649H41.7789V111.279C41.7789 112.145 41.0942 112.795 40.1929 112.795C39.2916 112.795 38.5376 112.137 38.5376 111.322V104.12C38.5376 103.305 39.2829 102.647 40.1929 102.647C41.1029 102.647 41.7789 103.297 41.7789 104.163V105.793H44.0235V104.146C44.0235 101.841 42.5762 100.463 40.1496 100.463V100.454Z"
    fill="black" />
  <path
    d="M43.8781 95.9901C49.442 95.9901 52.6572 91.4055 52.6572 84.6023V79.099C52.6572 70.8225 50.3259 66.7666 44.45 60.8734C41.2608 57.6754 39.6661 54.8328 39.6661 49.0783L39.6921 45.2737C39.6921 40.4291 41.0961 37.3871 43.8607 37.3871C46.6253 37.3871 47.5267 39.8484 47.5267 43.4797L47.622 50.7162H51.3746V43.2024C51.3746 37.0231 48.922 33.7559 43.8261 33.7559C38.7301 33.7559 35.7055 38.2624 35.7055 44.9963V48.7143C35.7055 57.3201 38.3661 60.5354 41.6248 63.95C41.8241 64.1667 42.0321 64.366 42.2054 64.5393L42.2487 64.5826C42.5694 64.9033 42.8987 65.2326 43.2454 65.6226C46.2007 68.9246 48.714 71.6025 48.714 79.1511V84.195C48.714 89.0742 46.9287 92.1855 43.6874 92.1855C40.7928 92.1855 39.0508 89.8629 39.0508 84.4203L38.9988 75.7711H35.0469V85.1223C35.0469 92.4108 38.0282 95.9987 43.8694 95.9987L43.8781 95.9901Z"
    fill="white" />
  <path
    d="M43.8781 95.9901C49.442 95.9901 52.6572 91.4055 52.6572 84.6023V79.099C52.6572 70.8225 50.3259 66.7666 44.45 60.8734C41.2608 57.6754 39.6661 54.8328 39.6661 49.0783L39.6921 45.2737C39.6921 40.4291 41.0961 37.3871 43.8607 37.3871C46.6253 37.3871 47.5267 39.8484 47.5267 43.4797L47.622 50.7162H51.3746V43.2024C51.3746 37.0231 48.922 33.7559 43.8261 33.7559C38.7301 33.7559 35.7055 38.2624 35.7055 44.9963V48.7143C35.7055 57.3201 38.3661 60.5354 41.6248 63.95C41.8241 64.1667 42.0321 64.366 42.2054 64.5393L42.2487 64.5826C42.5694 64.9033 42.8987 65.2326 43.2454 65.6226C46.2007 68.9246 48.714 71.6025 48.714 79.1511V84.195C48.714 89.0742 46.9287 92.1855 43.6874 92.1855C40.7928 92.1855 39.0508 89.8629 39.0508 84.4203L38.9988 75.7711H35.0469V85.1223C35.0469 92.4108 38.0282 95.9987 43.8694 95.9987L43.8781 95.9901Z"
    fill="black" />
  <path d="M106.345 91.4665V34.5361H102.289V95.2104H115.921V91.4665H106.345Z" fill="white" />
  <path d="M106.345 91.4665V34.5361H102.289V95.2104H115.921V91.4665H106.345Z" fill="black" />
  <path
    d="M96.7775 85.6512V34.5361H92.8862V85.6512C92.8862 89.9151 91.4736 92.3764 88.2583 92.3764C85.043 92.3764 83.6391 89.9151 83.6391 85.6512V34.5361H79.7305V85.6512C79.7305 92.1598 82.6771 95.9904 88.2583 95.9904C93.8395 95.9904 96.7775 92.1598 96.7775 85.6512V85.6512Z"
    fill="white" />
  <path
    d="M96.7775 85.6512V34.5361H92.8862V85.6512C92.8862 89.9151 91.4736 92.3764 88.2583 92.3764C85.043 92.3764 83.6391 89.9151 83.6391 85.6512V34.5361H79.7305V85.6512C79.7305 92.1598 82.6771 95.9904 88.2583 95.9904C93.8395 95.9904 96.7775 92.1598 96.7775 85.6512V85.6512Z"
    fill="black" />
  <path
    d="M65.5895 33.7559C60.0169 33.7559 57.0703 37.5865 57.0703 44.095V85.6423C57.0703 92.1508 60.0169 95.9814 65.5982 95.9814C71.1794 95.9814 74.1173 92.1508 74.1173 85.6423V44.095C74.1173 37.5865 71.1707 33.7559 65.5895 33.7559ZM70.2261 85.6509C70.2261 89.9149 68.8134 92.3761 65.5982 92.3761C62.3829 92.3761 60.9789 89.9149 60.9789 85.6509V48.3329H60.9616V44.095C60.9616 39.8311 62.3742 37.3698 65.5895 37.3698C68.8048 37.3698 70.2087 39.8311 70.2087 44.095V49.2602H70.2261V85.6423V85.6509Z"
    fill="white" />
  <path
    d="M65.5895 33.7559C60.0169 33.7559 57.0703 37.5865 57.0703 44.095V85.6423C57.0703 92.1508 60.0169 95.9814 65.5982 95.9814C71.1794 95.9814 74.1173 92.1508 74.1173 85.6423V44.095C74.1173 37.5865 71.1707 33.7559 65.5895 33.7559ZM70.2261 85.6509C70.2261 89.9149 68.8134 92.3761 65.5982 92.3761C62.3829 92.3761 60.9789 89.9149 60.9789 85.6509V48.3329H60.9616V44.095C60.9616 39.8311 62.3742 37.3698 65.5895 37.3698C68.8048 37.3698 70.2087 39.8311 70.2087 44.095V49.2602H70.2261V85.6423V85.6509Z"
    fill="black" />
</svg>